<svg width="75" height="42" viewBox="0 0 75 42" fill="none" xmlns="http://www.w3.org/2000/svg">
<path d="M4.608 38.18C4.024 38.18 3.492 38.084 3.012 37.892C2.532 37.7 2.12 37.42 1.776 37.052C1.432 36.684 1.164 36.232 0.972 35.696C0.788 35.152 0.696 34.532 0.696 33.836C0.696 33.14 0.8 32.524 1.008 31.988C1.224 31.444 1.512 30.988 1.872 30.62C2.232 30.252 2.652 29.972 3.132 29.78C3.612 29.588 4.124 29.492 4.668 29.492C5.012 29.492 5.32 29.516 5.592 29.564C5.872 29.612 6.112 29.668 6.312 29.732C6.52 29.796 6.688 29.86 6.816 29.924C6.944 29.988 7.032 30.036 7.08 30.068L6.744 31.028C6.672 30.98 6.568 30.928 6.432 30.872C6.296 30.816 6.14 30.76 5.964 30.704C5.796 30.648 5.608 30.604 5.4 30.572C5.2 30.532 4.996 30.512 4.788 30.512C4.348 30.512 3.952 30.588 3.6 30.74C3.248 30.892 2.948 31.112 2.7 31.4C2.452 31.688 2.26 32.04 2.124 32.456C1.996 32.864 1.932 33.324 1.932 33.836C1.932 34.332 1.988 34.784 2.1 35.192C2.22 35.6 2.396 35.952 2.628 36.248C2.86 36.536 3.148 36.76 3.492 36.92C3.844 37.08 4.252 37.16 4.716 37.16C5.252 37.16 5.696 37.104 6.048 36.992C6.4 36.88 6.664 36.78 6.84 36.692L7.14 37.652C7.084 37.692 6.984 37.744 6.84 37.808C6.696 37.864 6.516 37.92 6.3 37.976C6.084 38.032 5.832 38.08 5.544 38.12C5.256 38.16 4.944 38.18 4.608 38.18ZM21.643 33.836C21.643 33.124 21.747 32.496 21.955 31.952C22.171 31.408 22.459 30.956 22.819 30.596C23.187 30.228 23.611 29.952 24.091 29.768C24.579 29.584 25.095 29.492 25.639 29.492C26.175 29.492 26.679 29.584 27.151 29.768C27.631 29.952 28.051 30.228 28.411 30.596C28.771 30.956 29.055 31.408 29.263 31.952C29.479 32.496 29.587 33.124 29.587 33.836C29.587 34.548 29.479 35.176 29.263 35.72C29.055 36.264 28.771 36.72 28.411 37.088C28.051 37.448 27.631 37.72 27.151 37.904C26.679 38.088 26.175 38.18 25.639 38.18C25.095 38.18 24.579 38.088 24.091 37.904C23.611 37.72 23.187 37.448 22.819 37.088C22.459 36.72 22.171 36.264 21.955 35.72C21.747 35.176 21.643 34.548 21.643 33.836ZM22.867 33.836C22.867 34.34 22.931 34.8 23.059 35.216C23.187 35.624 23.367 35.972 23.599 36.26C23.839 36.548 24.127 36.772 24.463 36.932C24.807 37.084 25.191 37.16 25.615 37.16C26.039 37.16 26.419 37.084 26.755 36.932C27.091 36.772 27.375 36.548 27.607 36.26C27.847 35.972 28.031 35.624 28.159 35.216C28.287 34.8 28.351 34.34 28.351 33.836C28.351 33.332 28.287 32.876 28.159 32.468C28.031 32.052 27.847 31.7 27.607 31.412C27.375 31.124 27.091 30.904 26.755 30.752C26.419 30.592 26.039 30.512 25.615 30.512C25.191 30.512 24.807 30.592 24.463 30.752C24.127 30.904 23.839 31.124 23.599 31.412C23.367 31.7 23.187 32.052 23.059 32.468C22.931 32.876 22.867 33.332 22.867 33.836ZM51.8869 33.836C51.8869 34.556 51.7749 35.184 51.5509 35.72C51.3269 36.248 51.0109 36.688 50.6029 37.04C50.1949 37.384 49.7069 37.644 49.1389 37.82C48.5709 37.988 47.9469 38.072 47.2669 38.072C46.9309 38.072 46.5589 38.056 46.1509 38.024C45.7509 38 45.3869 37.948 45.0589 37.868V29.804C45.3869 29.724 45.7509 29.672 46.1509 29.648C46.5589 29.616 46.9309 29.6 47.2669 29.6C47.9469 29.6 48.5709 29.688 49.1389 29.864C49.7069 30.032 50.1949 30.292 50.6029 30.644C51.0109 30.988 51.3269 31.428 51.5509 31.964C51.7749 32.492 51.8869 33.116 51.8869 33.836ZM47.3629 37.052C48.4669 37.052 49.2909 36.772 49.8349 36.212C50.3789 35.644 50.6509 34.852 50.6509 33.836C50.6509 32.82 50.3789 32.032 49.8349 31.472C49.2909 30.904 48.4669 30.62 47.3629 30.62C47.0349 30.62 46.7789 30.624 46.5949 30.632C46.4189 30.64 46.2949 30.648 46.2229 30.656V37.016C46.2949 37.024 46.4189 37.032 46.5949 37.04C46.7789 37.048 47.0349 37.052 47.3629 37.052ZM67.3536 38V29.684H72.4296V30.68H68.5176V33.152H71.9976V34.124H68.5176V37.004H72.7296V38H67.3536Z" fill="white"/>
<path d="M5.76 6.98C7.82667 6.98 9.41333 7.34667 10.52 8.08C11.6267 8.8 12.18 9.98667 12.18 11.64C12.18 13.3067 11.62 14.5133 10.5 15.26C9.38 15.9933 7.78 16.36 5.7 16.36H4.72V21H1.6V7.34C2.28 7.20667 3 7.11333 3.76 7.06C4.52 7.00667 5.18667 6.98 5.76 6.98ZM5.96 9.64C5.73333 9.64 5.50667 9.64667 5.28 9.66C5.06667 9.67333 4.88 9.68667 4.72 9.7V13.7H5.7C6.78 13.7 7.59333 13.5533 8.14 13.26C8.68667 12.9667 8.96 12.42 8.96 11.62C8.96 11.2333 8.88667 10.9133 8.74 10.66C8.60667 10.4067 8.40667 10.2067 8.14 10.06C7.88667 9.9 7.57333 9.79333 7.2 9.74C6.82667 9.67333 6.41333 9.64 5.96 9.64ZM24.4711 7.14H27.5911V21H24.4711V7.14ZM46.2192 21.28C45.2459 21.28 44.4059 21.1467 43.6992 20.88C42.9926 20.6 42.4059 20.22 41.9392 19.74C41.4859 19.2467 41.1459 18.6667 40.9192 18C40.7059 17.32 40.5992 16.5733 40.5992 15.76V7.14H43.7192V15.5C43.7192 16.06 43.7792 16.54 43.8992 16.94C44.0326 17.3267 44.2059 17.6467 44.4192 17.9C44.6459 18.14 44.9126 18.3133 45.2192 18.42C45.5392 18.5267 45.8859 18.58 46.2592 18.58C47.0192 18.58 47.6326 18.3467 48.0992 17.88C48.5792 17.4133 48.8192 16.62 48.8192 15.5V7.14H51.9392V15.76C51.9392 16.5733 51.8259 17.32 51.5992 18C51.3726 18.68 51.0259 19.2667 50.5592 19.76C50.0926 20.24 49.4992 20.6133 48.7792 20.88C48.0592 21.1467 47.2059 21.28 46.2192 21.28ZM68.7198 18.62C69.1598 18.62 69.5198 18.5867 69.7998 18.52C70.0932 18.44 70.3265 18.34 70.4998 18.22C70.6732 18.0867 70.7932 17.9333 70.8598 17.76C70.9265 17.5867 70.9598 17.3933 70.9598 17.18C70.9598 16.7267 70.7465 16.3533 70.3198 16.06C69.8932 15.7533 69.1598 15.4267 68.1198 15.08C67.6665 14.92 67.2132 14.74 66.7598 14.54C66.3065 14.3267 65.8998 14.0667 65.5398 13.76C65.1798 13.44 64.8865 13.06 64.6598 12.62C64.4332 12.1667 64.3198 11.62 64.3198 10.98C64.3198 10.34 64.4398 9.76667 64.6798 9.26C64.9198 8.74 65.2598 8.3 65.6998 7.94C66.1398 7.58 66.6732 7.30667 67.2998 7.12C67.9265 6.92 68.6332 6.82 69.4198 6.82C70.3532 6.82 71.1598 6.92 71.8398 7.12C72.5198 7.32 73.0798 7.54 73.5198 7.78L72.6198 10.24C72.2332 10.04 71.7998 9.86667 71.3198 9.72C70.8532 9.56 70.2865 9.48 69.6198 9.48C68.8732 9.48 68.3332 9.58667 67.9998 9.8C67.6798 10 67.5198 10.3133 67.5198 10.74C67.5198 10.9933 67.5798 11.2067 67.6998 11.38C67.8198 11.5533 67.9865 11.7133 68.1998 11.86C68.4265 11.9933 68.6798 12.12 68.9598 12.24C69.2532 12.3467 69.5732 12.46 69.9198 12.58C70.6398 12.8467 71.2665 13.1133 71.7998 13.38C72.3332 13.6333 72.7732 13.9333 73.1198 14.28C73.4798 14.6267 73.7465 15.0333 73.9198 15.5C74.0932 15.9667 74.1798 16.5333 74.1798 17.2C74.1798 18.4933 73.7265 19.5 72.8198 20.22C71.9132 20.9267 70.5465 21.28 68.7198 21.28C68.1065 21.28 67.5532 21.24 67.0598 21.16C66.5665 21.0933 66.1265 21.0067 65.7398 20.9C65.3665 20.7933 65.0398 20.68 64.7598 20.56C64.4932 20.44 64.2665 20.3267 64.0798 20.22L64.9598 17.74C65.3732 17.9667 65.8798 18.1733 66.4798 18.36C67.0932 18.5333 67.8398 18.62 68.7198 18.62Z" fill="white"/>
</svg>
